<?xml version="1.0" encoding="utf-8"?>
<!-- Generator: Adobe Illustrator 22.0.1, SVG Export Plug-In . SVG Version: 6.00 Build 0)  -->
<svg version="1.1" id="Layer_1" xmlns="http://www.w3.org/2000/svg" xmlns:xlink="http://www.w3.org/1999/xlink" x="0px" y="0px"
	 viewBox="0 0 139.3 20" style="enable-background:new 0 0 139.3 20;" xml:space="preserve">
<style type="text/css">
	.st0{fill:#FFFFFF;}
</style>
<g>
	<path class="st0" d="M73.1,1.5c0,2,0,3.9,0,5.7c0.9-0.2,1.6-0.4,2.4-0.5c2.4-0.2,4.2,1,5,3.3c0.5,1.5,0.5,3,0.1,4.5
		c-0.6,2.1-1.9,3.3-4,3.6c-1.8,0.3-3.6,0.1-5.4-0.5c0-5.3,0-10.5,0-15.8C71.8,1.7,72.4,1.6,73.1,1.5z M73.1,12.7c0,0.5,0,1,0,1.5
		c0,2.3,0.1,2.4,2.4,2.2c1.5-0.1,2.6-0.9,3-2.3c0.2-0.9,0.3-1.9,0.2-2.8c-0.4-2.7-2.8-3.7-5.1-2.4c-0.4,0.2-0.5,0.5-0.5,0.9
		C73.1,10.8,73.1,11.7,73.1,12.7z"/>
	<path class="st0" d="M137.9,18c-0.7,0-1.2,0-1.8,0c-0.4,0-0.7-0.2-0.9-0.5c-1.2-1.5-2.5-2.9-3.8-4.3c-0.1-0.2-0.4-0.3-0.7-0.5
		c0,1,0,1.9,0,2.7c0,0.8,0,1.7,0,2.5c-0.7,0-1.2,0-1.9,0c0-5.4,0-10.7,0-16.1c0.6-0.1,1.2-0.2,1.9-0.3c0,3.3,0,6.6,0,9.8
		c0.1,0,0.1,0.1,0.2,0.1c0.5-0.5,1-1.1,1.6-1.6c0.7-0.8,1.5-1.5,2.1-2.3c0.4-0.4,0.8-0.6,1.3-0.6c0.5,0,0.9,0,1.6,0
		c-1.6,1.7-3.1,3.3-4.7,5C134.8,13.6,136.4,15.6,137.9,18z"/>
	<path class="st0" d="M59.7,12.9c-2.6,0-5.1,0-7.5,0c-0.1,1.9,1.1,3.3,2.8,3.4c0.6,0.1,1.2,0.1,1.8,0c0.6-0.1,1.2-0.2,1.8-0.4
		c0.1,0.5,0.2,1,0.3,1.5c-2.2,1.2-5.8,0.8-7.3-0.8c-1.2-1.2-1.5-2.7-1.5-4.2c0-1.8,0.4-3.5,1.8-4.7c1.5-1.3,3.3-1.5,5.1-0.9
		c1.7,0.6,2.4,1.9,2.6,3.6C59.6,11.3,59.6,12,59.7,12.9z M57.5,11.3c0.1-1.7-1-2.9-2.4-3c-1.6-0.1-2.9,1.3-2.9,3
		C54,11.3,55.7,11.3,57.5,11.3z"/>
	<path class="st0" d="M114.8,11.4c0.4-1.6-0.5-3.1-2.2-3.1c-1,0-1.9,0.2-3,0.3c-0.1-0.4-0.1-0.9-0.2-1.6c1.9-0.5,3.8-0.8,5.6,0
		c1.2,0.6,1.7,1.7,1.8,2.9c0.1,2.5,0,5.1,0,7.7c-2.1,0.3-4.2,0.7-6.3,0.1c-1.6-0.4-2.3-1.5-2.3-3.5c0-1.5,0.9-2.5,2.5-2.9
		c0.7-0.2,1.4-0.3,2.1-0.3C113.5,11.2,114.2,11.3,114.8,11.4z M115,16.4c0-1,0-2,0-2.9c0-0.2-0.2-0.5-0.4-0.5c-1,0-2.1-0.1-3,0.1
		c-0.9,0.2-1.3,0.9-1.2,1.6c0,0.9,0.5,1.5,1.4,1.6C112.8,16.5,113.8,16.4,115,16.4z"/>
	<path class="st0" d="M14.7,17.5c0.1-0.5,0.2-1,0.3-1.6c0.7,0.2,1.3,0.4,2,0.5c0.8,0.1,1.6,0.1,2.3-0.1c0.4-0.1,0.9-0.5,1-0.9
		c0.2-0.5-0.1-1.1-0.6-1.4c-0.6-0.3-1.1-0.6-1.7-0.9c-0.4-0.2-0.8-0.3-1.3-0.5c-1.6-0.7-2.2-1.8-1.9-3.5c0.2-1.2,1.3-2.2,2.8-2.4
		c1.4-0.2,2.7,0,4.2,0.4c-0.1,0.6-0.2,1.1-0.3,1.6c-1-0.1-1.9-0.3-2.8-0.3c-0.3,0-0.7,0-0.9,0.2c-0.4,0.3-0.9,0.6-0.9,1
		c-0.1,0.4,0.3,1,0.6,1.3c0.4,0.4,1,0.5,1.5,0.7c0.7,0.3,1.4,0.6,2,0.9c0.9,0.5,1.4,1.2,1.4,2.2c0.2,1.9-0.6,3-2.5,3.4
		C18.3,18.3,16.2,18.2,14.7,17.5z"/>
	<path class="st0" d="M35.5,3.5c0,1.1,0,2.2,0,3.4c1.4,0,2.7,0,4.1,0c0,0.6,0,1.1,0,1.7c-1.4,0-2.7,0-4.1,0c0,0.3,0,0.5,0,0.8
		c0,1.6,0,3.2,0,4.8c0,1.3,0.5,2.1,1.4,2.3c0.6,0.1,1.2,0,1.8-0.1c0.3,0,0.6-0.2,1-0.3c0.1,0.4,0.2,0.9,0.3,1.3
		c0,0.1-0.1,0.4-0.3,0.5c-1.4,0.5-2.8,0.6-4.3,0.1c-1-0.4-1.5-1.2-1.7-2.2c-0.1-0.5-0.2-1-0.2-1.6c0-3.2,0-6.4,0-9.6
		c0-0.6,0.2-0.8,0.7-0.8C34.6,3.7,35,3.6,35.5,3.5z"/>
	<path class="st0" d="M3.3,17.9c-0.7,0-1.3,0-1.9,0c0-4.9,0-9.7,0-14.6c0.6,0,1.2,0,1.9,0C3.3,8.2,3.3,13,3.3,17.9z"/>
	<path class="st0" d="M98.5,7c-0.1,0.6-0.2,1.1-0.3,1.5c-1.1,0-2.2,0-3.3,0c-0.6,0-0.8,0.3-0.8,0.9c0,2.5,0,5.1,0,7.6
		c0,0.3,0,0.5,0,0.8c-0.6,0-1.2,0-1.9,0c0-3.5,0-7,0-10.5C94.3,6.6,96.3,6.5,98.5,7z"/>
</g>
</svg>
